<svg xmlns="http://www.w3.org/2000/svg" width="256" height="256" viewBox="0 0 100 100"><rect width="100" height="100" rx="20" fill="#ffffff"></rect><path fill="#4364f7" d="M35.78 87.20L35.78 87.20Q30.62 87.20 27.62 84.20Q24.62 81.20 24.62 76.04L24.62 76.04L24.62 13.88Q26.06 13.64 28.82 13.22Q31.58 12.80 34.34 12.80L34.34 12.80Q40.34 12.80 42.98 14.84Q45.62 16.88 45.62 22.76L45.62 22.76L45.62 70.28L73.10 70.28Q73.94 71.60 74.66 73.76Q75.38 75.92 75.38 78.44L75.38 78.44Q75.38 82.88 73.46 85.04Q71.54 87.20 68.18 87.20L68.18 87.20L35.78 87.20Z"></path></svg>